<svg xmlns="http://www.w3.org/2000/svg" viewBox="0 0 760 60" width="760" height="60">

  <line x1="20" y1="30" x2="200" y2="30" stroke="#e6d3b3" stroke-width="2" stroke-dasharray="2 6"></line>
  <line x1="560" y1="30" x2="740" y2="30" stroke="#e6d3b3" stroke-width="2" stroke-dasharray="2 6"></line>


  <path d="M210 30 Q230 10 250 30 Q270 50 290 30 Q310 12 330 30 Q350 48 370 30 Q380 22 384 26 Q390 30 396 28 Q416 8 436 30 Q456 52 476 30 Q496 12 516 30 Q536 48 550 30" stroke="#2a1f17" stroke-width="2.5" fill="none" stroke-linecap="round"></path>


  <circle cx="380" cy="14" r="5" fill="#2a1f17"></circle>
  <circle cx="378" cy="12" r="5" fill="#f472b6" stroke="#2a1f17" stroke-width="2"></circle>
  <circle cx="396" cy="14" r="5" fill="#2a1f17"></circle>
  <circle cx="394" cy="12" r="5" fill="#fde68a" stroke="#2a1f17" stroke-width="2"></circle>


  <circle cx="170" cy="30" r="4" fill="#f472b6" stroke="#2a1f17" stroke-width="1.5"></circle>
  <circle cx="590" cy="30" r="4" fill="#38bdf8" stroke="#2a1f17" stroke-width="1.5"></circle>
</svg>