<?xml version="1.0" encoding="UTF-8"?>
<svg width="300" height="420" viewBox="0 0 300 420" fill="none" xmlns="http://www.w3.org/2000/svg">
  <defs>
    <filter id="softShadow" x="-20%" y="-20%" width="140%" height="150%" color-interpolation-filters="sRGB">
      <feDropShadow dx="0" dy="8" stdDeviation="0" flood-color="#E8D3B7" flood-opacity="1"></feDropShadow>
    </filter>
    <pattern id="dots" width="18" height="18" patternUnits="userSpaceOnUse">
      <circle cx="3" cy="3" r="1.2" fill="#F5DFC2" opacity="0.65"></circle>
    </pattern>
  </defs>
  <rect width="300" height="420" fill="none"></rect>
<rect x="24" y="24" width="252" height="352" rx="28" fill="#FFFCF5" stroke="#6E4D35" stroke-width="4" filter="url(#softShadow)"></rect>
  <rect x="24" y="24" width="252" height="48" rx="24" fill="#F5DFC2" stroke="#6E4D35" stroke-width="4"></rect>
  <circle cx="58" cy="48" r="11" fill="#F27DA5" stroke="#6E4D35" stroke-width="3"></circle>
  <path d="M226 42L238 54L250 42" stroke="#6E4D35" stroke-width="4" stroke-linecap="round" stroke-linejoin="round"></path>
  <rect x="50" y="100" width="200" height="48" rx="14" fill="#FFF7E9" stroke="#6E4D35" stroke-width="4"></rect>
  <path d="M72 124H206" stroke="#6E4D35" stroke-width="7" stroke-linecap="round" opacity="0.35"></path>
  <rect x="50" y="168" width="200" height="48" rx="14" fill="#FFF7E9" stroke="#6E4D35" stroke-width="4"></rect>
  <path d="M74 192H188" stroke="#6E4D35" stroke-width="7" stroke-linecap="round" opacity="0.35"></path>
  <rect x="50" y="236" width="200" height="66" rx="18" fill="#FFE0EA" stroke="#6E4D35" stroke-width="4"></rect>
  <g transform="translate(76 269) scale(0.5)">
    <rect x="0" y="-10" width="8" height="20" rx="4" fill="#F27DA5"></rect>
<rect x="18" y="-24" width="8" height="48" rx="4" fill="#F27DA5"></rect>
<rect x="36" y="-38" width="8" height="76" rx="4" fill="#F27DA5"></rect>
<rect x="54" y="-21" width="8" height="42" rx="4" fill="#F27DA5"></rect>
<rect x="72" y="-48" width="8" height="96" rx="4" fill="#F27DA5"></rect>
<rect x="90" y="-31" width="8" height="62" rx="4" fill="#F27DA5"></rect>
<rect x="108" y="-58" width="8" height="116" rx="4" fill="#F27DA5"></rect>
<rect x="126" y="-35" width="8" height="70" rx="4" fill="#F27DA5"></rect>
<rect x="144" y="-20" width="8" height="40" rx="4" fill="#F27DA5"></rect>
<rect x="162" y="-45" width="8" height="90" rx="4" fill="#F27DA5"></rect>
<rect x="180" y="-26" width="8" height="52" rx="4" fill="#F27DA5"></rect>
<rect x="198" y="-12" width="8" height="24" rx="4" fill="#F27DA5"></rect>
  </g>
  <g transform="translate(56 326)">
    <rect x="0" y="0" width="54" height="38" rx="12" fill="#4A3424"></rect>
    <path d="M22 11L37 19L22 27Z" fill="#FFFCF5"></path>
    <path d="M80 20H184" stroke="#6E4D35" stroke-width="6" stroke-linecap="round"></path>
    <circle cx="140" cy="20" r="12" fill="#F4C85D" stroke="#6E4D35" stroke-width="4"></circle>
  </g>
</svg>