<?xml version="1.0" encoding="UTF-8"?>
<svg width="760" height="188" viewBox="0 0 760 188" fill="none" xmlns="http://www.w3.org/2000/svg">
  <defs>
    <filter id="softShadow" x="-20%" y="-20%" width="140%" height="150%" color-interpolation-filters="sRGB">
      <feDropShadow dx="0" dy="8" stdDeviation="0" flood-color="#E8D3B7" flood-opacity="1"></feDropShadow>
    </filter>
    <pattern id="dots" width="18" height="18" patternUnits="userSpaceOnUse">
      <circle cx="3" cy="3" r="1.2" fill="#F5DFC2" opacity="0.65"></circle>
    </pattern>
  </defs>
  <rect width="760" height="188" fill="none"></rect>
<rect x="18" y="20" width="724" height="136" rx="28" fill="#FFFCF5" stroke="#6E4D35" stroke-width="4" filter="url(#softShadow)"></rect>

  <g transform="translate(58 54)">
    <rect x="0" y="0" width="128" height="76" rx="22" fill="#FFFCF5" stroke="#6E4D35" stroke-width="4" filter="url(#softShadow)"></rect>
    <rect x="0" y="0" width="128" height="42" rx="22" fill="#F5DFC2" stroke="#6E4D35" stroke-width="4"></rect>
    <circle cx="24" cy="21" r="6" fill="#F27DA5" stroke="#6E4D35" stroke-width="3"></circle>
    <circle cx="46" cy="21" r="6" fill="#F4C85D" stroke="#6E4D35" stroke-width="3"></circle>
    <circle cx="68" cy="21" r="6" fill="#8CB9E5" stroke="#6E4D35" stroke-width="3"></circle>

  </g>
  <rect x="76" y="78" width="80" height="10" rx="5" fill="#6E4D35" opacity="0.45"></rect>
  <rect x="76" y="100" width="52" height="10" rx="5" fill="#8CB9E5"></rect>
  <path d="M214 88H270" stroke="#6E4D35" stroke-width="7" stroke-linecap="round"></path>
  <path d="M254 70L272 88L254 106" stroke="#6E4D35" stroke-width="4" stroke-linecap="round" stroke-linejoin="round"></path>

  <g transform="translate(306 42)">
    <path d="M8 0H60L78 28V94C78 100 72 104 66 104H8C2 104 0 100 0 94V8C0 2 2 0 8 0Z" fill="#FFFCF5" stroke="#6E4D35" stroke-width="4" stroke-linejoin="round"></path>
    <path d="M60 0V28H78" fill="#F5DFC2" stroke="#6E4D35" stroke-width="4" stroke-linejoin="round"></path>
    <rect x="13" y="61" width="60" height="28" rx="10" fill="#F27DA5" stroke="#6E4D35" stroke-width="4"></rect>
    <text x="43" y="81" text-anchor="middle" font-size="18" font-weight="800" font-family="Inter, Avenir, Helvetica, Arial, sans-serif" fill="#4A3424">WAV</text>
  </g>
  <text x="413" y="98" text-anchor="middle" font-size="34" font-weight="900" fill="#F27DA5" font-family="Inter, Avenir, Helvetica, Arial, sans-serif">+</text>

  <g transform="translate(438 42)">
    <path d="M8 0H60L78 28V94C78 100 72 104 66 104H8C2 104 0 100 0 94V8C0 2 2 0 8 0Z" fill="#FFFCF5" stroke="#6E4D35" stroke-width="4" stroke-linejoin="round"></path>
    <path d="M60 0V28H78" fill="#F5DFC2" stroke="#6E4D35" stroke-width="4" stroke-linejoin="round"></path>
    <rect x="13" y="61" width="60" height="28" rx="10" fill="#8FC9A2" stroke="#6E4D35" stroke-width="4"></rect>
    <text x="43" y="81" text-anchor="middle" font-size="18" font-weight="800" font-family="Inter, Avenir, Helvetica, Arial, sans-serif" fill="#4A3424">JSON</text>
  </g>
  <path d="M548 88H604" stroke="#6E4D35" stroke-width="7" stroke-linecap="round"></path>
  <path d="M588 70L606 88L588 106" stroke="#6E4D35" stroke-width="4" stroke-linecap="round" stroke-linejoin="round"></path>
  <g transform="translate(632 62)">
    <rect x="0" y="0" width="70" height="58" rx="20" fill="#E5F2FF" stroke="#6E4D35" stroke-width="4"></rect>
    <path d="M20 30H50M35 15V45" stroke="#8CB9E5" stroke-width="7" stroke-linecap="round"></path>
  </g>
</svg>