<?xml version="1.0" encoding="UTF-8"?>
<svg width="420" height="300" viewBox="0 0 420 300" fill="none" xmlns="http://www.w3.org/2000/svg">
  <defs>
    <filter id="softShadow" x="-20%" y="-20%" width="140%" height="150%" color-interpolation-filters="sRGB">
      <feDropShadow dx="0" dy="8" stdDeviation="0" flood-color="#E8D3B7" flood-opacity="1"/>
    </filter>
    <pattern id="dots" width="18" height="18" patternUnits="userSpaceOnUse">
      <circle cx="3" cy="3" r="1.2" fill="#F5DFC2" opacity="0.65"/>
    </pattern>
  </defs>
  <rect width="420" height="300" fill="none"/>

  <g transform="translate(26 28)">
    <rect x="0" y="0" width="368" height="230" rx="22" fill="#FFFCF5" stroke="#6E4D35" stroke-width="4" filter="url(#softShadow)"/>
    <rect x="0" y="0" width="368" height="42" rx="22" fill="#F5DFC2" stroke="#6E4D35" stroke-width="4"/>
    <circle cx="24" cy="21" r="6" fill="#F27DA5" stroke="#6E4D35" stroke-width="3"/>
    <circle cx="46" cy="21" r="6" fill="#F4C85D" stroke="#6E4D35" stroke-width="3"/>
    <circle cx="68" cy="21" r="6" fill="#8FC9A2" stroke="#6E4D35" stroke-width="3"/>
    <text x="346" y="28" text-anchor="end" font-size="15" font-weight="800" font-family="Inter, Avenir, Helvetica, Arial, sans-serif" fill="#4A3424">Godot</text>
  </g>
  <rect x="60" y="96" width="160" height="112" rx="20" fill="#E3F4E8" stroke="#6E4D35" stroke-width="4"/>
  <path d="M82 150C96 119 123 108 141 129C162 102 194 124 196 154C198 181 172 197 140 196C107 196 76 180 82 150Z" fill="#8CB9E5" stroke="#6E4D35" stroke-width="4" stroke-linejoin="round"/>
  <circle cx="123" cy="155" r="6" fill="#FFFCF5"/>
  <circle cx="161" cy="155" r="6" fill="#FFFCF5"/>
  <path d="M126 176H160" stroke="#FFFCF5" stroke-width="5" stroke-linecap="round"/>
  <path d="M250 100H346M250 130H330M250 160H356M250 190H316" stroke="#6E4D35" stroke-width="8" stroke-linecap="round" opacity="0.55"/>
  <rect x="252" y="215" width="94" height="22" rx="11" fill="#8FC9A2" stroke="#6E4D35" stroke-width="4"/>
</svg>
