<?xml version="1.0" encoding="UTF-8"?>
<svg width="420" height="300" viewBox="0 0 420 300" fill="none" xmlns="http://www.w3.org/2000/svg">
  <defs>
    <filter id="softShadow" x="-20%" y="-20%" width="140%" height="150%" color-interpolation-filters="sRGB">
      <feDropShadow dx="0" dy="8" stdDeviation="0" flood-color="#E8D3B7" flood-opacity="1"></feDropShadow>
    </filter>
    <pattern id="dots" width="18" height="18" patternUnits="userSpaceOnUse">
      <circle cx="3" cy="3" r="1.2" fill="#F5DFC2" opacity="0.65"></circle>
    </pattern>
  </defs>
  <rect width="420" height="300" fill="none"></rect>

  <g transform="translate(26 28)">
    <rect x="0" y="0" width="368" height="230" rx="22" fill="#FFFCF5" stroke="#6E4D35" stroke-width="4" filter="url(#softShadow)"></rect>
    <rect x="0" y="0" width="368" height="42" rx="22" fill="#F5DFC2" stroke="#6E4D35" stroke-width="4"></rect>
    <circle cx="24" cy="21" r="6" fill="#F27DA5" stroke="#6E4D35" stroke-width="3"></circle>
    <circle cx="46" cy="21" r="6" fill="#F4C85D" stroke="#6E4D35" stroke-width="3"></circle>
    <circle cx="68" cy="21" r="6" fill="#8CB9E5" stroke="#6E4D35" stroke-width="3"></circle>
    <text x="346" y="28" text-anchor="end" font-size="15" font-weight="800" font-family="Inter, Avenir, Helvetica, Arial, sans-serif" fill="#4A3424">Unity</text>
  </g>
  <rect x="60" y="94" width="160" height="116" rx="20" fill="#E5F2FF" stroke="#6E4D35" stroke-width="4"></rect>
  <path d="M108 146L142 112L176 146L142 180Z" fill="#FFFCF5" stroke="#6E4D35" stroke-width="4"></path>
  <path d="M250 100H346M250 130H330M250 160H356M250 190H316" stroke="#6E4D35" stroke-width="8" stroke-linecap="round" opacity="0.55"></path>
  <rect x="252" y="215" width="94" height="22" rx="11" fill="#F27DA5" stroke="#6E4D35" stroke-width="4"></rect>
</svg>