<?xml version="1.0" encoding="UTF-8"?>
<svg width="320" height="220" viewBox="0 0 320 220" fill="none" xmlns="http://www.w3.org/2000/svg">
  <defs>
    <filter id="softShadow" x="-20%" y="-20%" width="140%" height="150%" color-interpolation-filters="sRGB">
      <feDropShadow dx="0" dy="8" stdDeviation="0" flood-color="#E8D3B7" flood-opacity="1"></feDropShadow>
    </filter>
    <pattern id="dots" width="18" height="18" patternUnits="userSpaceOnUse">
      <circle cx="3" cy="3" r="1.2" fill="#F5DFC2" opacity="0.65"></circle>
    </pattern>
  </defs>
  <rect width="320" height="220" fill="none"></rect>
<rect x="18" y="18" width="284" height="184" rx="28" fill="#FFFCF5" stroke="#6E4D35" stroke-width="4" filter="url(#softShadow)"></rect>
  <rect x="38" y="38" width="244" height="144" rx="24" fill="#FFE0EA" opacity="0.62"></rect>
<g transform="translate(52 50)">

  <g transform="translate(2 2)">
    <path d="M8 0H60L68 28V86C68 92 62 96 56 96H8C2 96 0 92 0 86V8C0 2 2 0 8 0Z" fill="#FFFCF5" stroke="#6E4D35" stroke-width="4" stroke-linejoin="round"></path>
    <path d="M60 0V28H68" fill="#F5DFC2" stroke="#6E4D35" stroke-width="4" stroke-linejoin="round"></path>
    <rect x="13" y="53" width="50" height="28" rx="10" fill="#F27DA5" stroke="#6E4D35" stroke-width="4"></rect>
    <text x="38" y="73" text-anchor="middle" font-size="18" font-weight="800" font-family="Inter, Avenir, Helvetica, Arial, sans-serif" fill="#4A3424">WAV</text>
  </g>
    <path d="M96 76H134" stroke="#6E4D35" stroke-width="5" stroke-linecap="round"></path>
    <path d="M122 62L136 76L122 90" stroke="#6E4D35" stroke-width="4" stroke-linecap="round" stroke-linejoin="round"></path>
    <g transform="translate(138 30)">
      <path d="M18 20H108C126 20 140 36 137 54L132 84C130 96 116 101 107 92L88 74H38L19 92C10 101 -4 96 -6 84L-11 54C-14 36 0 20 18 20Z" fill="#E5F2FF" stroke="#6E4D35" stroke-width="4" stroke-linejoin="round"></path>
      <path d="M28 50H58M43 35V65" stroke="#6E4D35" stroke-width="5" stroke-linecap="round"></path>
      <circle cx="93" cy="48" r="7" fill="#F27DA5" stroke="#6E4D35" stroke-width="3"></circle>
      <circle cx="115" cy="61" r="7" fill="#F4C85D" stroke="#6E4D35" stroke-width="3"></circle>
    </g>
  </g>
</svg>