<?xml version="1.0" encoding="UTF-8"?>
<svg width="320" height="220" viewBox="0 0 320 220" fill="none" xmlns="http://www.w3.org/2000/svg">
  <defs>
    <filter id="softShadow" x="-20%" y="-20%" width="140%" height="150%" color-interpolation-filters="sRGB">
      <feDropShadow dx="0" dy="8" stdDeviation="0" flood-color="#E8D3B7" flood-opacity="1"/>
    </filter>
    <pattern id="dots" width="18" height="18" patternUnits="userSpaceOnUse">
      <circle cx="3" cy="3" r="1.2" fill="#F5DFC2" opacity="0.65"/>
    </pattern>
  </defs>
  <rect width="320" height="220" fill="none"/>
<rect x="18" y="18" width="284" height="184" rx="28" fill="#FFFCF5" stroke="#6E4D35" stroke-width="4" filter="url(#softShadow)"/>
  <rect x="38" y="38" width="244" height="144" rx="24" fill="#FFE0EA" opacity="0.62"/>
<g transform="translate(84 54)">
    <path d="M25 20H142C155 20 166 31 166 44V96C166 109 155 120 142 120H83L50 148V120H25C12 120 2 109 2 96V44C2 31 12 20 25 20Z" fill="#FFFCF5" stroke="#6E4D35" stroke-width="4" stroke-linejoin="round"/>
    <text x="84" y="78" text-anchor="middle" font-size="35" font-weight="900" font-family="Inter, Avenir, Helvetica, Arial, sans-serif" fill="#4A3424">Aa</text>
    <path d="M35 119L154 28" stroke="#E96C6C" stroke-width="8" stroke-linecap="round"/>
    <path d="M46 54C59 42 75 38 91 43M122 84C135 76 144 64 146 49" stroke="#F27DA5" stroke-width="5" stroke-linecap="round"/>
  </g>
</svg>
