<?xml version="1.0" encoding="UTF-8"?>
<svg width="320" height="220" viewBox="0 0 320 220" fill="none" xmlns="http://www.w3.org/2000/svg">
  <defs>
    <filter id="softShadow" x="-20%" y="-20%" width="140%" height="150%" color-interpolation-filters="sRGB">
      <feDropShadow dx="0" dy="8" stdDeviation="0" flood-color="#E8D3B7" flood-opacity="1"></feDropShadow>
    </filter>
    <pattern id="dots" width="18" height="18" patternUnits="userSpaceOnUse">
      <circle cx="3" cy="3" r="1.2" fill="#F5DFC2" opacity="0.65"></circle>
    </pattern>
  </defs>
  <rect width="320" height="220" fill="none"></rect>
<rect x="18" y="18" width="284" height="184" rx="28" fill="#FFFCF5" stroke="#6E4D35" stroke-width="4" filter="url(#softShadow)"></rect>
  <rect x="38" y="38" width="244" height="144" rx="24" fill="#E3F4E8" opacity="0.62"></rect>
<g transform="translate(78 47)">
    <rect x="8" y="34" width="82" height="82" rx="20" fill="#FFFCF5" stroke="#6E4D35" stroke-width="4"></rect>
    <circle cx="32" cy="58" r="7" fill="#F27DA5"></circle>
    <circle cx="66" cy="92" r="7" fill="#8CB9E5"></circle>
    <circle cx="32" cy="92" r="7" fill="#8FC9A2"></circle>
    <path d="M111 49C137 27 178 38 190 72C203 109 172 143 137 137" stroke="#6E4D35" stroke-width="5" stroke-linecap="round"></path>
    <path d="M136 137L152 119M136 137L160 144" stroke="#6E4D35" stroke-width="5" stroke-linecap="round"></path>
    <path d="M141 67C157 70 167 85 162 101C157 117 141 125 125 119C119 96 122 78 141 67Z" fill="#8FC9A2" stroke="#6E4D35" stroke-width="4"></path>
    <path d="M133 84C142 91 148 99 152 110" stroke="#6E4D35" stroke-width="4" stroke-linecap="round"></path>
  </g>
</svg>