<?xml version="1.0" encoding="UTF-8"?>
<svg width="320" height="220" viewBox="0 0 320 220" fill="none" xmlns="http://www.w3.org/2000/svg">
  <defs>
    <filter id="softShadow" x="-20%" y="-20%" width="140%" height="150%" color-interpolation-filters="sRGB">
      <feDropShadow dx="0" dy="8" stdDeviation="0" flood-color="#E8D3B7" flood-opacity="1"></feDropShadow>
    </filter>
    <pattern id="dots" width="18" height="18" patternUnits="userSpaceOnUse">
      <circle cx="3" cy="3" r="1.2" fill="#F5DFC2" opacity="0.65"></circle>
    </pattern>
  </defs>
  <rect width="320" height="220" fill="none"></rect>
<rect x="18" y="18" width="284" height="184" rx="28" fill="#FFFCF5" stroke="#6E4D35" stroke-width="4" filter="url(#softShadow)"></rect>
  <rect x="38" y="38" width="244" height="144" rx="24" fill="#FFF2C7" opacity="0.62"></rect>

  <g transform="translate(68 54)">
    <path d="M8 0H60L74 28V94C74 100 68 104 62 104H8C2 104 0 100 0 94V8C0 2 2 0 8 0Z" fill="#FFFCF5" stroke="#6E4D35" stroke-width="4" stroke-linejoin="round"></path>
    <path d="M60 0V28H74" fill="#F5DFC2" stroke="#6E4D35" stroke-width="4" stroke-linejoin="round"></path>
    <rect x="13" y="61" width="56" height="28" rx="10" fill="#F27DA5" stroke="#6E4D35" stroke-width="4"></rect>
    <text x="41" y="81" text-anchor="middle" font-size="18" font-weight="800" font-family="Inter, Avenir, Helvetica, Arial, sans-serif" fill="#4A3424">WAV</text>
  </g>
  <path d="M153 106H168M160 99V113" stroke="#6E4D35" stroke-width="5" stroke-linecap="round"></path>

  <g transform="translate(180 54)">
    <path d="M8 0H60L74 28V94C74 100 68 104 62 104H8C2 104 0 100 0 94V8C0 2 2 0 8 0Z" fill="#FFFCF5" stroke="#6E4D35" stroke-width="4" stroke-linejoin="round"></path>
    <path d="M60 0V28H74" fill="#F5DFC2" stroke="#6E4D35" stroke-width="4" stroke-linejoin="round"></path>
    <rect x="13" y="61" width="56" height="28" rx="10" fill="#8FC9A2" stroke="#6E4D35" stroke-width="4"></rect>
    <text x="41" y="81" text-anchor="middle" font-size="18" font-weight="800" font-family="Inter, Avenir, Helvetica, Arial, sans-serif" fill="#4A3424">JSON</text>
  </g>
  <g transform="translate(91 94) scale(0.24)">
    <rect x="0" y="-10" width="8" height="20" rx="4" fill="#F27DA5"></rect>
<rect x="18" y="-24" width="8" height="48" rx="4" fill="#F27DA5"></rect>
<rect x="36" y="-38" width="8" height="76" rx="4" fill="#F27DA5"></rect>
<rect x="54" y="-21" width="8" height="42" rx="4" fill="#F27DA5"></rect>
<rect x="72" y="-48" width="8" height="96" rx="4" fill="#F27DA5"></rect>
<rect x="90" y="-31" width="8" height="62" rx="4" fill="#F27DA5"></rect>
<rect x="108" y="-58" width="8" height="116" rx="4" fill="#F27DA5"></rect>
<rect x="126" y="-35" width="8" height="70" rx="4" fill="#F27DA5"></rect>
<rect x="144" y="-20" width="8" height="40" rx="4" fill="#F27DA5"></rect>
<rect x="162" y="-45" width="8" height="90" rx="4" fill="#F27DA5"></rect>
<rect x="180" y="-26" width="8" height="52" rx="4" fill="#F27DA5"></rect>
<rect x="198" y="-12" width="8" height="24" rx="4" fill="#F27DA5"></rect>
  </g>
  <path d="M208 86C201 92 201 108 208 114M234 86C241 92 241 108 234 114" stroke="#6E4D35" stroke-width="4" stroke-linecap="round" opacity="0.72"></path>
</svg>