<?xml version="1.0" encoding="UTF-8"?>
<svg width="320" height="220" viewBox="0 0 320 220" fill="none" xmlns="http://www.w3.org/2000/svg">
  <defs>
    <filter id="softShadow" x="-20%" y="-20%" width="140%" height="150%" color-interpolation-filters="sRGB">
      <feDropShadow dx="0" dy="8" stdDeviation="0" flood-color="#E8D3B7" flood-opacity="1"></feDropShadow>
    </filter>
    <pattern id="dots" width="18" height="18" patternUnits="userSpaceOnUse">
      <circle cx="3" cy="3" r="1.2" fill="#F5DFC2" opacity="0.65"></circle>
    </pattern>
  </defs>
  <rect width="320" height="220" fill="none"></rect>
<rect x="18" y="18" width="284" height="184" rx="28" fill="#FFFCF5" stroke="#6E4D35" stroke-width="4" filter="url(#softShadow)"></rect>
  <rect x="38" y="38" width="244" height="144" rx="24" fill="#E5F2FF" opacity="0.62"></rect>
<g transform="translate(58 48)">
    <rect x="0" y="16" width="204" height="118" rx="20" fill="#FFFCF5" stroke="#6E4D35" stroke-width="4"></rect>
    <path d="M28 52H154M28 82H118M28 112H170" stroke="#6E4D35" stroke-width="7" stroke-linecap="round"></path>
    <rect x="24" y="46" width="76" height="12" rx="6" fill="#F27DA5" opacity="0.9"></rect>
    <rect x="24" y="76" width="118" height="12" rx="6" fill="#8CB9E5" opacity="0.82"></rect>
    <path d="M212 22V130" stroke="#6E4D35" stroke-width="5" stroke-linecap="round"></path>
    <path d="M203 46H222M203 88H222M203 120H222" stroke="#F27DA5" stroke-width="5" stroke-linecap="round"></path>
  </g>
</svg>