<svg xmlns="http://www.w3.org/2000/svg" viewBox="0 0 920 300" width="920" height="300" font-family="Nunito, -apple-system, system-ui, sans-serif">
  <defs>
    <radialGradient id="washA" cx="14%" cy="22%" r="42%"><stop offset="0" stop-color="#f472b6" stop-opacity=".14"></stop><stop offset="1" stop-color="#f472b6" stop-opacity="0"></stop></radialGradient>
    <radialGradient id="washB" cx="86%" cy="78%" r="44%"><stop offset="0" stop-color="#38bdf8" stop-opacity=".14"></stop><stop offset="1" stop-color="#38bdf8" stop-opacity="0"></stop></radialGradient>
    <radialGradient id="washC" cx="60%" cy="8%" r="36%"><stop offset="0" stop-color="#7c3aed" stop-opacity=".08"></stop><stop offset="1" stop-color="#7c3aed" stop-opacity="0"></stop></radialGradient>
  </defs>


  <rect x="8" y="8" width="906" height="288" rx="22" fill="#2a1f17"></rect>
  <rect x="2" y="2" width="906" height="288" rx="22" fill="#fdf6ec" stroke="#2a1f17" stroke-width="2"></rect>
  <rect x="2" y="2" width="906" height="288" rx="22" fill="url(#washA)"></rect>
  <rect x="2" y="2" width="906" height="288" rx="22" fill="url(#washB)"></rect>
  <rect x="2" y="2" width="906" height="288" rx="22" fill="url(#washC)"></rect>


  <g transform="translate(48,42)">
    <rect x="0" y="0" width="218" height="28" rx="14" fill="#2a1f17"></rect>
    <circle cx="16" cy="14" r="4.5" fill="#f472b6"></circle>
    <circle cx="16" cy="14" r="6.5" fill="none" stroke="#fde68a" stroke-width="2"></circle>
    <text x="32" y="19" font-family="JetBrains Mono, ui-monospace, monospace" font-size="11" font-weight="700" letter-spacing="1.2" fill="#fde68a">PROTOTYPE  AUDIO  TOOL</text>
  </g>


  <g transform="translate(740,38)">
    <rect x="6" y="6" width="138" height="44" rx="22" fill="#2a1f17"></rect>
    <rect x="0" y="0" width="138" height="44" rx="22" fill="#fde68a" stroke="#2a1f17" stroke-width="2"></rect>
    <text x="69" y="29" text-anchor="middle" font-family="JetBrains Mono, ui-monospace, monospace" font-size="13" font-weight="700" fill="#2a1f17">V1.5.0</text>
  </g>


  <text x="48" y="148" font-size="68" font-weight="900" letter-spacing="-2" fill="#2a1f17">
    <tspan fill="#f472b6">Mumble</tspan> Voice Lab
  </text>


  <text x="48" y="186" font-size="17" font-weight="700" fill="#6b5849">
    cozy character mumble for games · WAV + schedule JSON · deterministic
  </text>


  <g transform="translate(560,140)" stroke="#2a1f17" stroke-width="2.5" stroke-linecap="round" fill="none">
    <path d="M0 24 Q10 4 20 24 Q30 44 40 24 Q50 8 60 24 Q70 40 80 24 Q92 18 96 22 Q104 6 116 24 Q128 42 140 24 Q152 8 164 24 Q176 40 188 24 Q200 12 212 24 Q220 30 228 24 Q240 8 252 24 Q264 40 276 24 Q288 14 300 24 Q310 32 320 24" stroke="#f472b6"></path>
  </g>


  <g transform="translate(48,224)">

    <g transform="translate(0,0)">
      <circle cx="24" cy="26" r="22" fill="#2a1f17"></circle>
      <circle cx="22" cy="22" r="22" fill="#f472b6" stroke="#2a1f17" stroke-width="2"></circle>
      <circle cx="15" cy="20" r="2.5" fill="#2a1f17"></circle><circle cx="29" cy="20" r="2.5" fill="#2a1f17"></circle>
      <path d="M16 28 Q22 32 28 28" stroke="#2a1f17" stroke-width="2" fill="none" stroke-linecap="round"></path>
    </g>

    <g transform="translate(58,0)">
      <rect x="2" y="6" width="44" height="40" rx="6" fill="#2a1f17"></rect>
      <rect x="0" y="2" width="44" height="40" rx="6" fill="#22c55e" stroke="#2a1f17" stroke-width="2"></rect>
      <line x1="22" y1="-4" x2="22" y2="2" stroke="#2a1f17" stroke-width="2"></line>
      <circle cx="22" cy="-5" r="2.5" fill="#22c55e" stroke="#2a1f17" stroke-width="1.5"></circle>
      <rect x="9" y="14" width="8" height="6" fill="#2a1f17"></rect><rect x="27" y="14" width="8" height="6" fill="#2a1f17"></rect>
      <rect x="14" y="28" width="16" height="3" fill="#2a1f17"></rect>
    </g>

    <g transform="translate(116,0)">
      <circle cx="24" cy="26" r="22" fill="#2a1f17"></circle>
      <circle cx="22" cy="22" r="22" fill="#fb7185" stroke="#2a1f17" stroke-width="2"></circle>
      <ellipse cx="15" cy="20" rx="2.5" ry="3" fill="#2a1f17"></ellipse><ellipse cx="29" cy="20" rx="2.5" ry="3" fill="#2a1f17"></ellipse>
      <ellipse cx="11" cy="28" rx="3" ry="2" fill="#2a1f17" opacity=".25"></ellipse><ellipse cx="33" cy="28" rx="3" ry="2" fill="#2a1f17" opacity=".25"></ellipse>
      <path d="M17 28 Q22 32 27 28" stroke="#2a1f17" stroke-width="2" fill="none" stroke-linecap="round"></path>
    </g>

    <g transform="translate(174,0)">
      <circle cx="24" cy="26" r="22" fill="#2a1f17"></circle>
      <circle cx="22" cy="22" r="22" fill="#eab308" stroke="#2a1f17" stroke-width="2"></circle>
      <path d="M11 18 Q14 16 17 18" stroke="#2a1f17" stroke-width="2.2" fill="none" stroke-linecap="round"></path>
      <circle cx="29" cy="20" r="2.5" fill="#2a1f17"></circle>
      <ellipse cx="22" cy="30" rx="4" ry="2.5" fill="#2a1f17"></ellipse>
    </g>

    <g transform="translate(232,0)">
      <circle cx="24" cy="26" r="22" fill="#2a1f17"></circle>
      <circle cx="22" cy="22" r="22" fill="#38bdf8" stroke="#2a1f17" stroke-width="2"></circle>
      <circle cx="16" cy="22" r="2" fill="#2a1f17"></circle><circle cx="28" cy="22" r="2" fill="#2a1f17"></circle>
      <path d="M18 28 Q22 32 26 28 L26 31 Q22 33 18 31 Z" fill="#fb7185" stroke="#2a1f17" stroke-width="1.5"></path>
    </g>

    <g transform="translate(290,0)">
      <circle cx="24" cy="26" r="22" fill="#2a1f17"></circle>
      <circle cx="22" cy="22" r="22" fill="#14b8a6" stroke="#2a1f17" stroke-width="2"></circle>
      <path d="M22 -2 Q28 0 26 8 Q22 6 22 -2 Z" fill="#14b8a6" stroke="#2a1f17" stroke-width="2"></path>
      <path d="M12 18 Q14 16 17 18" stroke="#2a1f17" stroke-width="2" fill="none" stroke-linecap="round"></path>
      <path d="M27 18 Q29 16 32 18" stroke="#2a1f17" stroke-width="2" fill="none" stroke-linecap="round"></path>
      <path d="M17 28 Q22 31 27 28" stroke="#2a1f17" stroke-width="2" fill="none" stroke-linecap="round"></path>
    </g>

    <g transform="translate(348,0)">
      <circle cx="24" cy="26" r="22" fill="#2a1f17"></circle>
      <circle cx="22" cy="22" r="22" fill="#f59e0b" stroke="#2a1f17" stroke-width="2"></circle>
      <path d="M11 18 Q15 22 19 18" stroke="#2a1f17" stroke-width="2.2" fill="none" stroke-linecap="round"></path>
      <path d="M25 18 Q29 22 33 18" stroke="#2a1f17" stroke-width="2.2" fill="none" stroke-linecap="round"></path>
      <path d="M17 30 Q22 27 27 30" stroke="#2a1f17" stroke-width="2" fill="none" stroke-linecap="round"></path>
    </g>

    <g transform="translate(406,0)">
      <path d="M2 28 L8 6 L14 18 L20 4 L26 18 L32 4 L38 18 L44 6 L44 38 L2 38 Z" fill="#ef4444" stroke="#2a1f17" stroke-width="2" stroke-linejoin="round"></path>
      <line x1="10" y1="14" x2="18" y2="20" stroke="#2a1f17" stroke-width="2.2" stroke-linecap="round"></line>
      <line x1="36" y1="14" x2="28" y2="20" stroke="#2a1f17" stroke-width="2.2" stroke-linecap="round"></line>
      <circle cx="14" cy="22" r="2" fill="#2a1f17"></circle><circle cx="32" cy="22" r="2" fill="#2a1f17"></circle>
      <path d="M12 30 L16 34 L20 30 L24 34 L28 30 L32 34 L36 30" fill="none" stroke="#2a1f17" stroke-width="2"></path>
    </g>

    <g transform="translate(464,0)">
      <path d="M4 4 L8 12 L14 0 L22 10 L28 0 L36 12 L40 4 L40 14 L4 14 Z" fill="#fde68a" stroke="#2a1f17" stroke-width="2" stroke-linejoin="round"></path>
      <circle cx="14" cy="6" r="1.4" fill="#ef4444"></circle><circle cx="22" cy="4" r="1.4" fill="#7c3aed"></circle><circle cx="28" cy="6" r="1.4" fill="#22c55e"></circle>
      <circle cx="22" cy="30" r="16" fill="#7c3aed" stroke="#2a1f17" stroke-width="2"></circle>
      <ellipse cx="16" cy="28" rx="3" ry="2.5" fill="#fde68a" stroke="#2a1f17" stroke-width="1.6"></ellipse>
      <ellipse cx="28" cy="28" rx="3" ry="2.5" fill="#fde68a" stroke="#2a1f17" stroke-width="1.6"></ellipse>
      <circle cx="16" cy="28" r="1" fill="#2a1f17"></circle><circle cx="28" cy="28" r="1" fill="#2a1f17"></circle>
      <path d="M16 36 Q22 38 28 36" stroke="#2a1f17" stroke-width="2" fill="none" stroke-linecap="round"></path>
    </g>


    <text x="538" y="32" font-family="JetBrains Mono, ui-monospace, monospace" font-size="11" font-weight="700" fill="#6b5849">9 character cast · seedable · WAV + JSON</text>
  </g>
</svg>