<?xml version="1.0" encoding="UTF-8"?>
<svg width="1200" height="520" viewBox="0 0 1200 520" fill="none" xmlns="http://www.w3.org/2000/svg">
  <defs>
    <filter id="softShadow" x="-20%" y="-20%" width="140%" height="150%" color-interpolation-filters="sRGB">
      <feDropShadow dx="0" dy="8" stdDeviation="0" flood-color="#E8D3B7" flood-opacity="1"/>
    </filter>
    <pattern id="dots" width="18" height="18" patternUnits="userSpaceOnUse">
      <circle cx="3" cy="3" r="1.2" fill="#F5DFC2" opacity="0.65"/>
    </pattern>
  </defs>
  <rect width="1200" height="520" fill="none"/>
<rect x="24" y="24" width="1152" height="472" rx="44" fill="#FFF7E9" stroke="#6E4D35" stroke-width="6"/>
  <rect x="24" y="24" width="1152" height="472" rx="44" fill="url(#dots)" opacity="0.7"/>
  <g transform="translate(104 112)">
    <path d="M126 38C172 46 206 88 210 146C215 219 172 282 105 282C38 282 -4 225 2 154C8 82 63 27 126 38Z" fill="#FFE0EA" stroke="#6E4D35" stroke-width="6" stroke-linejoin="round"/>
    <circle cx="77" cy="117" r="10" fill="#4A3424"/>
    <circle cx="142" cy="117" r="10" fill="#4A3424"/>
    <circle cx="57" cy="150" r="12" fill="#F27DA5" opacity="0.45"/>
    <circle cx="162" cy="150" r="12" fill="#F27DA5" opacity="0.45"/>
    <path d="M85 155C101 174 124 175 143 155" stroke="#6E4D35" stroke-width="4" stroke-linecap="round" stroke-linejoin="round"/>
    <path d="M99 165C109 171 120 171 130 165" stroke="#F27DA5" stroke-width="4" stroke-linecap="round"/>
    <g transform="translate(146 166) rotate(-15)">
      <rect x="0" y="0" width="54" height="82" rx="24" fill="#4A3424"/>
      <rect x="9" y="8" width="36" height="50" rx="17" fill="#F5DFC2" stroke="#6E4D35" stroke-width="4"/>
      <path d="M27 58V101" stroke="#6E4D35" stroke-width="6" stroke-linecap="round"/>
      <path d="M8 102H47" stroke="#6E4D35" stroke-width="6" stroke-linecap="round"/>
      <path d="M16 22H38M14 34H40M16 46H38" stroke="#6E4D35" stroke-width="3" stroke-linecap="round"/>
    </g>
  </g>
  <g transform="translate(380 94)">
    <rect x="0" y="0" width="664" height="154" rx="30" fill="#FFFCF5" stroke="#6E4D35" stroke-width="5" filter="url(#softShadow)"/>
    <text x="46" y="68" font-size="56" font-weight="900" letter-spacing="0" font-family="Inter, Avenir, Helvetica, Arial, sans-serif" fill="#4A3424">Mumble Voice Lab</text>
    <text x="48" y="112" font-size="26" font-weight="750" fill="#F27DA5" font-family="Inter, Avenir, Helvetica, Arial, sans-serif">game-ready mumble / gibberish voices</text>
  </g>
  <g transform="translate(454 340) scale(1.15)">
    <rect x="0" y="-10" width="8" height="20" rx="4" fill="#F27DA5"/>
<rect x="18" y="-24" width="8" height="48" rx="4" fill="#F27DA5"/>
<rect x="36" y="-38" width="8" height="76" rx="4" fill="#F27DA5"/>
<rect x="54" y="-21" width="8" height="42" rx="4" fill="#F27DA5"/>
<rect x="72" y="-48" width="8" height="96" rx="4" fill="#F27DA5"/>
<rect x="90" y="-31" width="8" height="62" rx="4" fill="#F27DA5"/>
<rect x="108" y="-58" width="8" height="116" rx="4" fill="#F27DA5"/>
<rect x="126" y="-35" width="8" height="70" rx="4" fill="#F27DA5"/>
<rect x="144" y="-20" width="8" height="40" rx="4" fill="#F27DA5"/>
<rect x="162" y="-45" width="8" height="90" rx="4" fill="#F27DA5"/>
<rect x="180" y="-26" width="8" height="52" rx="4" fill="#F27DA5"/>
<rect x="198" y="-12" width="8" height="24" rx="4" fill="#F27DA5"/>
  </g>
  
  <g transform="translate(770 292)">
    <path d="M8 0H60L80 28V98C80 104 74 108 68 108H8C2 108 0 104 0 98V8C0 2 2 0 8 0Z" fill="#FFFCF5" stroke="#6E4D35" stroke-width="4" stroke-linejoin="round"/>
    <path d="M60 0V28H80" fill="#F5DFC2" stroke="#6E4D35" stroke-width="4" stroke-linejoin="round"/>
    <rect x="13" y="65" width="62" height="28" rx="10" fill="#F27DA5" stroke="#6E4D35" stroke-width="4"/>
    <text x="44" y="85" text-anchor="middle" font-size="18" font-weight="800" font-family="Inter, Avenir, Helvetica, Arial, sans-serif" fill="#4A3424">WAV</text>
  </g>
  
  <g transform="translate(884 292)">
    <path d="M8 0H60L80 28V98C80 104 74 108 68 108H8C2 108 0 104 0 98V8C0 2 2 0 8 0Z" fill="#FFFCF5" stroke="#6E4D35" stroke-width="4" stroke-linejoin="round"/>
    <path d="M60 0V28H80" fill="#F5DFC2" stroke="#6E4D35" stroke-width="4" stroke-linejoin="round"/>
    <rect x="13" y="65" width="62" height="28" rx="10" fill="#8FC9A2" stroke="#6E4D35" stroke-width="4"/>
    <text x="44" y="85" text-anchor="middle" font-size="18" font-weight="800" font-family="Inter, Avenir, Helvetica, Arial, sans-serif" fill="#4A3424">JSON</text>
  </g>
  <g transform="translate(1016 305)">
    <rect x="0" y="0" width="94" height="86" rx="24" fill="#E5F2FF" stroke="#6E4D35" stroke-width="4"/>
    <path d="M25 45H69M47 23V67" stroke="#8CB9E5" stroke-width="8" stroke-linecap="round"/>
    <circle cx="23" cy="66" r="6" fill="#F27DA5" stroke="#6E4D35" stroke-width="3"/>
    <circle cx="71" cy="66" r="6" fill="#F4C85D" stroke="#6E4D35" stroke-width="3"/>
  </g>
  <g transform="translate(407 292)">
    <rect x="0" y="0" width="238" height="48" rx="24" fill="#FFF2C7" stroke="#6E4D35" stroke-width="4"/>
    <circle cx="34" cy="24" r="11" fill="#8FC9A2" stroke="#6E4D35" stroke-width="3"/>
    <text x="58" y="31" font-size="20" font-weight="800" font-family="Inter, Avenir, Helvetica, Arial, sans-serif" fill="#4A3424">deterministic audio assets</text>
  </g>
  
  <path d="M1088 100.8L1092.4 109.6L1101.2 114L1092.4 118.4L1088 127.2L1083.6 118.4L1074.8 114L1083.6 109.6Z" fill="#F4C85D" stroke="#6E4D35" stroke-width="3.3000000000000003" stroke-linejoin="round"/>
  
  <path d="M342 387L345 393L351 396L345 399L342 405L339 399L333 396L339 393Z" fill="#8CB9E5" stroke="#6E4D35" stroke-width="2.25" stroke-linejoin="round"/>
</svg>
