<?xml version="1.0" encoding="UTF-8"?>
<svg width="440" height="262" viewBox="0 0 440 262" fill="none" xmlns="http://www.w3.org/2000/svg">
  <defs>
    <filter id="softShadow" x="-20%" y="-20%" width="140%" height="150%" color-interpolation-filters="sRGB">
      <feDropShadow dx="0" dy="8" stdDeviation="0" flood-color="#E8D3B7" flood-opacity="1"></feDropShadow>
    </filter>
    <pattern id="dots" width="18" height="18" patternUnits="userSpaceOnUse">
      <circle cx="3" cy="3" r="1.2" fill="#F5DFC2" opacity="0.65"></circle>
    </pattern>
  </defs>
  <rect width="440" height="262" fill="none"></rect>
<rect x="18" y="18" width="404" height="216" rx="30" fill="#FFFCF5" stroke="#6E4D35" stroke-width="4" filter="url(#softShadow)"></rect>
  <circle cx="56" cy="56" r="22" fill="#E5F2FF" stroke="#6E4D35" stroke-width="4"></circle>
  <text x="56" y="64" text-anchor="middle" font-size="20" font-weight="900" font-family="Inter, Avenir, Helvetica, Arial, sans-serif" fill="#4A3424">6</text>
<rect x="96" y="70" width="250" height="140" rx="26" fill="#E5F2FF" stroke="#6E4D35" stroke-width="4"></rect>
  <rect x="120" y="96" width="202" height="78" rx="18" fill="#FFFCF5" stroke="#6E4D35" stroke-width="4"></rect>
  <path d="M150 136H196M173 113V159" stroke="#8CB9E5" stroke-width="7" stroke-linecap="round"></path>
  <g transform="translate(218 138) scale(0.35)">
    <rect x="0" y="-10" width="8" height="20" rx="4" fill="#F27DA5"></rect>
<rect x="18" y="-24" width="8" height="48" rx="4" fill="#F27DA5"></rect>
<rect x="36" y="-38" width="8" height="76" rx="4" fill="#F27DA5"></rect>
<rect x="54" y="-21" width="8" height="42" rx="4" fill="#F27DA5"></rect>
<rect x="72" y="-48" width="8" height="96" rx="4" fill="#F27DA5"></rect>
<rect x="90" y="-31" width="8" height="62" rx="4" fill="#F27DA5"></rect>
<rect x="108" y="-58" width="8" height="116" rx="4" fill="#F27DA5"></rect>
<rect x="126" y="-35" width="8" height="70" rx="4" fill="#F27DA5"></rect>
<rect x="144" y="-20" width="8" height="40" rx="4" fill="#F27DA5"></rect>
<rect x="162" y="-45" width="8" height="90" rx="4" fill="#F27DA5"></rect>
<rect x="180" y="-26" width="8" height="52" rx="4" fill="#F27DA5"></rect>
<rect x="198" y="-12" width="8" height="24" rx="4" fill="#F27DA5"></rect>
  </g>
  <path d="M166 210H276" stroke="#6E4D35" stroke-width="7" stroke-linecap="round"></path>
</svg>