<?xml version="1.0" encoding="UTF-8"?>
<svg width="440" height="262" viewBox="0 0 440 262" fill="none" xmlns="http://www.w3.org/2000/svg">
  <defs>
    <filter id="softShadow" x="-20%" y="-20%" width="140%" height="150%" color-interpolation-filters="sRGB">
      <feDropShadow dx="0" dy="8" stdDeviation="0" flood-color="#E8D3B7" flood-opacity="1"></feDropShadow>
    </filter>
    <pattern id="dots" width="18" height="18" patternUnits="userSpaceOnUse">
      <circle cx="3" cy="3" r="1.2" fill="#F5DFC2" opacity="0.65"></circle>
    </pattern>
  </defs>
  <rect width="440" height="262" fill="none"></rect>
<rect x="18" y="18" width="404" height="216" rx="30" fill="#FFFCF5" stroke="#6E4D35" stroke-width="4" filter="url(#softShadow)"></rect>
  <circle cx="56" cy="56" r="22" fill="#FFF2C7" stroke="#6E4D35" stroke-width="4"></circle>
  <text x="56" y="64" text-anchor="middle" font-size="20" font-weight="900" font-family="Inter, Avenir, Helvetica, Arial, sans-serif" fill="#4A3424">4</text>

  <g transform="translate(120 68)">
    <path d="M8 0H60L74 28V94C74 100 68 104 62 104H8C2 104 0 100 0 94V8C0 2 2 0 8 0Z" fill="#FFFCF5" stroke="#6E4D35" stroke-width="4" stroke-linejoin="round"></path>
    <path d="M60 0V28H74" fill="#F5DFC2" stroke="#6E4D35" stroke-width="4" stroke-linejoin="round"></path>
    <rect x="13" y="61" width="56" height="28" rx="10" fill="#F27DA5" stroke="#6E4D35" stroke-width="4"></rect>
    <text x="41" y="81" text-anchor="middle" font-size="18" font-weight="800" font-family="Inter, Avenir, Helvetica, Arial, sans-serif" fill="#4A3424">WAV</text>
  </g>

  <g transform="translate(220 68)">
    <path d="M8 0H60L74 28V94C74 100 68 104 62 104H8C2 104 0 100 0 94V8C0 2 2 0 8 0Z" fill="#FFFCF5" stroke="#6E4D35" stroke-width="4" stroke-linejoin="round"></path>
    <path d="M60 0V28H74" fill="#F5DFC2" stroke="#6E4D35" stroke-width="4" stroke-linejoin="round"></path>
    <rect x="13" y="61" width="56" height="28" rx="10" fill="#8FC9A2" stroke="#6E4D35" stroke-width="4"></rect>
    <text x="41" y="81" text-anchor="middle" font-size="18" font-weight="800" font-family="Inter, Avenir, Helvetica, Arial, sans-serif" fill="#4A3424">JSON</text>
  </g>
  <path d="M310 120H364" stroke="#6E4D35" stroke-width="7" stroke-linecap="round"></path>
  <path d="M348 101L367 120L348 139" stroke="#6E4D35" stroke-width="4" stroke-linecap="round" stroke-linejoin="round"></path>
  <rect x="96" y="198" width="240" height="18" rx="9" fill="#F4C85D" stroke="#6E4D35" stroke-width="4"></rect>
</svg>